<svg width="57" height="57" viewBox="0 0 57 57" fill="none" xmlns="http://www.w3.org/2000/svg">
<path d="M48.0938 0H8.90625C3.98746 0 0 3.98746 0 8.90625V48.0938C0 53.0125 3.98746 57 8.90625 57H48.0938C53.0125 57 57 53.0125 57 48.0938V8.90625C57 3.98746 53.0125 0 48.0938 0Z" fill="#1877F2"/>
<path d="M42.75 28.5C42.75 20.6625 36.3375 14.25 28.5 14.25C20.6625 14.25 14.25 20.6625 14.25 28.5C14.25 35.625 19.4156 41.5031 26.1844 42.5719V32.5969H22.6219V28.5H26.1844V25.2937C26.1844 21.7312 28.3219 19.7719 31.5281 19.7719C33.1313 19.7719 34.7344 20.1281 34.7344 20.1281V23.6906H32.9531C31.1719 23.6906 30.6375 24.7594 30.6375 25.8281V28.5H34.5562L33.8438 32.5969H30.4594V42.75C37.5844 41.6812 42.75 35.625 42.75 28.5Z" fill="white"/>
</svg>
