<svg width="57" height="57" viewBox="0 0 57 57" fill="none" xmlns="http://www.w3.org/2000/svg">
<path d="M57 8.90625C57 3.98746 53.0125 0 48.0938 0H8.90625C3.98746 0 0 3.98746 0 8.90625V48.0938C0 53.0125 3.98746 57 8.90625 57H48.0938C53.0125 57 57 53.0125 57 48.0938V8.90625Z" fill="white"/>
<path fill-rule="evenodd" clip-rule="evenodd" d="M42.4471 28.824C42.4471 27.8135 42.3564 26.8419 42.188 25.9092H28.767V31.4214H36.4361C36.1058 33.2026 35.1018 34.7118 33.5926 35.7223V39.2977H38.198C40.8925 36.8169 42.4471 33.1637 42.4471 28.824Z" fill="#4285F4"/>
<path fill-rule="evenodd" clip-rule="evenodd" d="M28.7664 42.75C32.614 42.75 35.8396 41.474 38.1974 39.2977L33.592 35.7222C32.316 36.5772 30.6837 37.0824 28.7664 37.0824C25.055 37.0824 21.9135 34.5757 20.7929 31.2075H16.0321V34.8996C18.3769 39.5567 23.196 42.75 28.7664 42.75Z" fill="#34A853"/>
<path fill-rule="evenodd" clip-rule="evenodd" d="M20.7935 31.2074C20.5085 30.3524 20.3466 29.4391 20.3466 28.4999C20.3466 27.5607 20.5085 26.6474 20.7935 25.7924V22.1003H16.0327C15.0676 24.0241 14.517 26.2005 14.517 28.4999C14.517 30.7993 15.0676 32.9757 16.0327 34.8995L20.7935 31.2074Z" fill="#FBBC05"/>
<path fill-rule="evenodd" clip-rule="evenodd" d="M28.7664 19.9176C30.8586 19.9176 32.737 20.6366 34.2138 22.0487L38.301 17.9615C35.8332 15.662 32.6075 14.25 28.7664 14.25C23.196 14.25 18.3769 17.4433 16.0321 22.1005L20.7929 25.7925C21.9135 22.4243 25.055 19.9176 28.7664 19.9176Z" fill="#EA4335"/>
</svg>
