<svg width="57" height="57" viewBox="0 0 57 57" fill="none" xmlns="http://www.w3.org/2000/svg">
<path d="M48.0938 0H8.90625C3.98746 0 0 3.98746 0 8.90625V48.0938C0 53.0125 3.98746 57 8.90625 57H48.0938C53.0125 57 57 53.0125 57 48.0938V8.90625C57 3.98746 53.0125 0 48.0938 0Z" fill="#F00073"/>
<path d="M28.5 16.3875C32.4188 16.3875 32.9531 16.3875 34.5563 16.3875C35.9813 16.3875 36.6938 16.7437 37.2281 16.9218C37.9406 17.2781 38.475 17.4562 39.0094 17.9906C39.5438 18.525 39.9 19.0593 40.0781 19.7718C40.2563 20.3062 40.4344 21.0187 40.6125 22.4437C40.6125 24.0468 40.6125 24.4031 40.6125 28.5C40.6125 32.5968 40.6125 32.9531 40.6125 34.5562C40.6125 35.9812 40.2563 36.6937 40.0781 37.2281C39.7219 37.9406 39.5438 38.475 39.0094 39.0093C38.475 39.5437 37.9406 39.9 37.2281 40.0781C36.6938 40.2562 35.9813 40.4343 34.5563 40.6124C32.9531 40.6124 32.5969 40.6124 28.5 40.6124C24.4031 40.6124 24.0469 40.6124 22.4438 40.6124C21.0188 40.6124 20.3063 40.2562 19.7719 40.0781C19.0594 39.7218 18.525 39.5437 17.9906 39.0093C17.4563 38.475 17.1 37.9406 16.9219 37.2281C16.7438 36.6937 16.5656 35.9812 16.3875 34.5562C16.3875 32.9531 16.3875 32.5968 16.3875 28.5C16.3875 24.4031 16.3875 24.0468 16.3875 22.4437C16.3875 21.0187 16.7438 20.3062 16.9219 19.7718C17.2781 19.0593 17.4563 18.525 17.9906 17.9906C18.525 17.4562 19.0594 17.1 19.7719 16.9218C20.3063 16.7437 21.0188 16.5656 22.4438 16.3875C24.0469 16.3875 24.5813 16.3875 28.5 16.3875ZM28.5 13.7156C24.4031 13.7156 24.0469 13.7156 22.4438 13.7156C20.8406 13.7156 19.7719 14.0718 18.8813 14.4281C17.9906 14.7843 17.1 15.3187 16.2094 16.2093C15.3188 17.1 14.9625 17.8125 14.4281 18.8812C14.0719 19.7718 13.8938 20.8406 13.7156 22.4437C13.7156 24.0468 13.7156 24.5812 13.7156 28.5C13.7156 32.5968 13.7156 32.9531 13.7156 34.5562C13.7156 36.1593 14.0719 37.2281 14.4281 38.1187C14.7844 39.0093 15.3188 39.9 16.2094 40.7906C17.1 41.6812 17.8125 42.0375 18.8813 42.5718C19.7719 42.9281 20.8406 43.1062 22.4438 43.2843C24.0469 43.2843 24.5813 43.2843 28.5 43.2843C32.4188 43.2843 32.9531 43.2843 34.5563 43.2843C36.1594 43.2843 37.2281 42.9281 38.1188 42.5718C39.0094 42.2156 39.9 41.6812 40.7906 40.7906C41.6813 39.9 42.0375 39.1875 42.5719 38.1187C42.9281 37.2281 43.1063 36.1593 43.2844 34.5562C43.2844 32.9531 43.2844 32.4187 43.2844 28.5C43.2844 24.5812 43.2844 24.0468 43.2844 22.4437C43.2844 20.8406 42.9281 19.7718 42.5719 18.8812C42.2156 17.9906 41.6813 17.1 40.7906 16.2093C39.9 15.3187 39.1875 14.9625 38.1188 14.4281C37.2281 14.0718 36.1594 13.8937 34.5563 13.7156C32.9531 13.7156 32.5969 13.7156 28.5 13.7156Z" fill="white"/>
<path d="M28.5 20.8406C24.225 20.8406 20.8406 24.225 20.8406 28.5C20.8406 32.775 24.225 36.1593 28.5 36.1593C32.775 36.1593 36.1594 32.775 36.1594 28.5C36.1594 24.225 32.775 20.8406 28.5 20.8406ZM28.5 33.4874C25.8281 33.4874 23.5125 31.35 23.5125 28.5C23.5125 25.8281 25.65 23.5125 28.5 23.5125C31.1719 23.5125 33.4875 25.65 33.4875 28.5C33.4875 31.1718 31.1719 33.4874 28.5 33.4874Z" fill="white"/>
<path d="M36.3375 22.4437C37.3213 22.4437 38.1188 21.6462 38.1188 20.6625C38.1188 19.6787 37.3213 18.8812 36.3375 18.8812C35.3538 18.8812 34.5563 19.6787 34.5563 20.6625C34.5563 21.6462 35.3538 22.4437 36.3375 22.4437Z" fill="white"/>
</svg>
